<svg id="visual" viewBox="0 0 960 540" width="960" height="540" xmlns="http://www.w3.org/2000/svg" xmlns:xlink="http://www.w3.org/1999/xlink" version="1.1"><rect x="0" y="0" width="960" height="540" fill="#ffffff"></rect><defs><linearGradient id="grad1_0" x1="43.8%" y1="0%" x2="100%" y2="100%"><stop offset="14.444444444444446%" stop-color="#ffffff" stop-opacity="1"></stop><stop offset="85.55555555555554%" stop-color="#ffffff" stop-opacity="1"></stop></linearGradient></defs><defs><linearGradient id="grad2_0" x1="0%" y1="0%" x2="56.3%" y2="100%"><stop offset="14.444444444444446%" stop-color="#ffffff" stop-opacity="1"></stop><stop offset="85.55555555555554%" stop-color="#ffffff" stop-opacity="1"></stop></linearGradient></defs><g transform="translate(960, 0)"><path d="M0 297C-45.9 279.3 -91.8 261.6 -138 239C-184.2 216.5 -230.7 189.1 -257.2 148.5C-283.8 107.9 -290.4 53.9 -297 0L0 0Z" fill="#6772E5"></path></g><g transform="translate(0, 540)"><path d="M0 -297C54.7 -290.8 109.5 -284.7 148.5 -257.2C187.5 -229.7 210.8 -180.9 233 -134.5C255.1 -88.1 276 -44 297 0L0 0Z" fill="#6772E5"></path></g></svg>